<?xml version="1.0" encoding="utf-8"?>
<svg version="1.1" id="Capa_1" x="0px" y="0px" width="836.127px" height="836.127px" viewBox="0 0 836.127 836.127" style="enable-background:new 0 0 836.127 836.127;" xmlns="http://www.w3.org/2000/svg">
  <g>
    <path style="fill-rule: nonzero; fill: none; stroke-linejoin: round; paint-order: fill; stroke: rgb(255, 255, 255); stroke-width: 28px;" d="M 809.596 270.254 C 809.596 236.063 802.872 202.93 789.715 171.622 C 776.941 141.465 758.695 114.383 735.453 91.142 C 712.212 67.9 685.129 49.653 654.974 36.88 C 623.761 23.627 590.531 17 556.342 17 C 522.153 17 489.019 23.722 457.711 36.88 C 427.557 49.653 400.473 67.9 377.231 91.142 C 353.99 114.383 335.742 141.465 322.97 171.622 C 309.717 202.834 303.091 236.063 303.091 270.254 C 303.091 312.989 313.846 354.861 334.303 392.124 L 31.111 695.029 C 24.099 702.041 21.89 712.7 26.212 722.784 C 27.077 724.897 28.516 726.818 30.149 728.449 L 98.048 796.348 C 99.681 797.982 101.601 799.327 103.714 800.287 C 113.798 804.608 124.459 802.497 131.47 795.388 L 173.439 753.418 L 233.846 813.827 C 235.479 815.459 237.399 816.804 239.512 817.764 C 249.595 822.087 260.256 819.975 267.266 812.867 L 334.205 745.929 C 335.837 744.296 337.182 742.376 338.143 740.263 C 342.463 730.179 340.352 719.518 333.244 712.508 L 273.797 653.061 L 434.373 492.389 C 471.54 512.845 513.509 523.601 556.245 523.601 C 590.436 523.601 623.569 516.878 654.875 503.721 C 685.031 490.948 712.115 472.701 735.356 449.459 C 758.597 426.219 776.843 399.136 789.618 368.98 C 802.872 337.575 809.596 304.443 809.596 270.254 Z M 645.082 359.087 C 621.36 382.809 589.763 395.87 556.247 395.87 C 522.73 395.87 491.131 382.809 467.411 359.087 C 443.691 335.366 430.534 303.771 430.534 270.254 C 430.534 236.638 443.594 205.139 467.316 181.417 C 491.036 157.695 522.635 144.634 556.15 144.634 C 589.669 144.634 621.264 157.695 644.987 181.417 C 668.708 205.139 681.768 236.735 681.768 270.254 C 681.961 303.771 668.899 335.366 645.082 359.087 Z"/>
  </g>
</svg>